{
  "accessors": [
    {
      "bufferView": 2,
      "componentType": 5126,
      "count": 5660,
      "max": [
        2.4480960369110107,
        3.380579948425293,
        5.7158269882202148
      ],
      "min": [
        -2.4480950832366943,
        -2.095721960067749,
        -0.036506999284029007
      ],
      "type": "VEC3"
    },
    {
      "bufferView": 2,
      "byteOffset": 67920,
      "componentType": 5126,
      "count": 5660,
      "max": [
        0.99957990646362305,
        0.9999624490737915,
        0.99992722272872925
      ],
      "min": [
        -0.99957990646362305,
        -0.99995309114456177,
        -0.99965155124664307
      ],
      "type": "VEC3"
    },
    {
      "bufferView": 1,
      "componentType": 5126,
      "count": 5660,
      "max": [
        1,
        1
      ],
      "min": [
        0,
        0
      ],
      "type": "VEC2"
    },
    {
      "bufferView": 0,
      "componentType": 5125,
      "count": 32256,
      "max": [
        5659
      ],
      "min": [
        0
      ],
      "type": "SCALAR"
    },
    {
      "bufferView": 2,
      "byteOffset": 135840,
      "componentType": 5126,
      "count": 2050,
      "max": [
        2.1500000953674316,
        1.8500000238418579,
        4.2999992370605469
      ],
      "min": [
        -2.1500000953674316,
        -2.4500000476837158,
        0
      ],
      "type": "VEC3"
    },
    {
      "bufferView": 2,
      "byteOffset": 160440,
      "componentType": 5126,
      "count": 2050,
      "max": [
        1,
        1,
        1
      ],
      "min": [
        -1,
        -1,
        -1
      ],
      "type": "VEC3"
    },
    {
      "bufferView": 1,
      "byteOffset": 45280,
      "componentType": 5126,
      "count": 2050,
      "max": [
        1,
        1
      ],
      "min": [
        -0,
        0
      ],
      "type": "VEC2"
    },
    {
      "bufferView": 0,
      "byteOffset": 129024,
      "componentType": 5125,
      "count": 11904,
      "max": [
        2049
      ],
      "min": [
        0
      ],
      "type": "SCALAR"
    },
    {
      "bufferView": 2,
      "byteOffset": 185040,
      "componentType": 5126,
      "count": 766,
      "max": [
        0.82666701078414917,
        -1.6020660400390625,
        4.4802432060241699
      ],
      "min": [
        -0.82662200927734375,
        -2.183682918548584,
        3.9225978851318359
      ],
      "type": "VEC3"
    },
    {
      "bufferView": 2,
      "byteOffset": 194232,
      "componentType": 5126,
      "count": 766,
      "max": [
        0.99863773584365845,
        1,
        0.99999099969863892
      ],
      "min": [
        -0.9985123872756958,
        -1,
        -0.99999409914016724
      ],
      "type": "VEC3"
    },
    {
      "bufferView": 1,
      "byteOffset": 61680,
      "componentType": 5126,
      "count": 766,
      "max": [
        1,
        1
      ],
      "min": [
        0,
        0
      ],
      "type": "VEC2"
    },
    {
      "bufferView": 0,
      "byteOffset": 176640,
      "componentType": 5125,
      "count": 2304,
      "max": [
        765
      ],
      "min": [
        0
      ],
      "type": "SCALAR"
    },
    {
      "bufferView": 2,
      "byteOffset": 203424,
      "componentType": 5126,
      "count": 1456,
      "max": [
        3.1178638935089111,
        4.280393123626709,
        5.511383056640625
      ],
      "min": [
        -3.1178650856018066,
        -2.1121459007263184,
        -1.3604860305786133
      ],
      "type": "VEC3"
    },
    {
      "bufferView": 2,
      "byteOffset": 220896,
      "componentType": 5126,
      "count": 1456,
      "max": [
        0.99999153614044189,
        0.99906474351882935,
        0.99994421005249023
      ],
      "min": [
        -0.9999958872795105,
        -0.99967688322067261,
        -0.99989724159240723
      ],
      "type": "VEC3"
    },
    {
      "bufferView": 1,
      "byteOffset": 67808,
      "componentType": 5126,
      "count": 1456,
      "max": [
        1,
        1
      ],
      "min": [
        0,
        0
      ],
      "type": "VEC2"
    },
    {
      "bufferView": 0,
      "byteOffset": 185856,
      "componentType": 5125,
      "count": 7488,
      "max": [
        1455
      ],
      "min": [
        0
      ],
      "type": "SCALAR"
    }
  ],
  "asset": {
    "extras": {
      "author": "carbis (https://sketchfab.com/carbis)",
      "license": "CC-BY-4.0 (http://creativecommons.org/licenses/by/4.0/)",
      "source": "https://sketchfab.com/3d-models/wapuu-24fd7124473e4c3dbcb8a5d543f698fd",
      "title": "Wapuu"
    },
    "generator": "Sketchfab-7.87.0",
    "version": "2.0"
  },
  "bufferViews": [
    {
      "buffer": 0,
      "byteLength": 215808,
      "byteOffset": 0,
      "name": "floatBufferViews",
      "target": 34963
    },
    {
      "buffer": 0,
      "byteLength": 79456,
      "byteOffset": 215808,
      "byteStride": 8,
      "name": "floatBufferViews",
      "target": 34962
    },
    {
      "buffer": 0,
      "byteLength": 238368,
      "byteOffset": 295264,
      "byteStride": 12,
      "name": "floatBufferViews",
      "target": 34962
    }
  ],
  "buffers": [
    {
      "byteLength": 533632,
      "uri": "scene.bin"
    }
  ],
  "images": [
    {
      "uri": "textures/lambert18SG_baseColor.png"
    }
  ],
  "materials": [
    {
      "doubleSided": true,
      "emissiveFactor": [
        0,
        0,
        0
      ],
      "name": "d_wapuu_14lambert13SG",
      "pbrMetallicRoughness": {
        "baseColorFactor": [
          0,
          0,
          0,
          1
        ],
        "metallicFactor": 0,
        "roughnessFactor": 1
      }
    },
    {
      "doubleSided": true,
      "emissiveFactor": [
        0,
        0,
        0
      ],
      "name": "d_wapuu_14lambert22SG",
      "pbrMetallicRoughness": {
        "baseColorFactor": [
          0.84999999999999998,
          0.55000000000000004,
          0.029999999999999999,
          1
        ],
        "metallicFactor": 0,
        "roughnessFactor": 1
      }
    },
    {
      "doubleSided": true,
      "emissiveFactor": [
        0,
        0,
        0
      ],
      "name": "lambert18SG",
      "pbrMetallicRoughness": {
        "baseColorFactor": [
          1,
          1,
          1,
          1
        ],
        "baseColorTexture": {
          "index": 0,
          "texCoord": 0
        },
        "metallicFactor": 0,
        "roughnessFactor": 1
      }
    },
    {
      "doubleSided": true,
      "emissiveFactor": [
        0,
        0,
        0
      ],
      "name": "wapuu_mat_body_ear_tail1SG",
      "pbrMetallicRoughness": {
        "baseColorFactor": [
          0.83999999999999997,
          0.20999999999999999,
          0.02,
          1
        ],
        "metallicFactor": 0,
        "roughnessFactor": 1
      }
    }
  ],
  "meshes": [
    {
      "primitives": [
        {
          "attributes": {
            "NORMAL": 1,
            "POSITION": 0,
            "TEXCOORD_0": 2
          },
          "indices": 3,
          "material": 1,
          "mode": 4
        }
      ]
    },
    {
      "primitives": [
        {
          "attributes": {
            "NORMAL": 5,
            "POSITION": 4,
            "TEXCOORD_0": 6
          },
          "indices": 7,
          "material": 2,
          "mode": 4
        }
      ]
    },
    {
      "primitives": [
        {
          "attributes": {
            "NORMAL": 9,
            "POSITION": 8,
            "TEXCOORD_0": 10
          },
          "indices": 11,
          "material": 0,
          "mode": 4
        }
      ]
    },
    {
      "primitives": [
        {
          "attributes": {
            "NORMAL": 13,
            "POSITION": 12,
            "TEXCOORD_0": 14
          },
          "indices": 15,
          "material": 3,
          "mode": 4
        }
      ]
    }
  ],
  "nodes": [
    {
      "children": [
        1
      ],
      "name": "RootNode (gltf orientation matrix)",
      "rotation": [
        -0.70710678118654746,
        -0,
        -0,
        0.70710678118654757
      ]
    },
    {
      "children": [
        2
      ],
      "name": "RootNode (model correction matrix)"
    },
    {
      "children": [
        3,
        4,
        5,
        6
      ],
      "name": "wapuu_mid.obj.cleaner.materialmerger.gles"
    },
    {
      "mesh": 0,
      "name": ""
    },
    {
      "mesh": 1,
      "name": ""
    },
    {
      "mesh": 2,
      "name": ""
    },
    {
      "mesh": 3,
      "name": ""
    }
  ],
  "samplers": [
    {
      "magFilter": 9729,
      "minFilter": 9987,
      "wrapS": 10497,
      "wrapT": 10497
    }
  ],
  "scene": 0,
  "scenes": [
    {
      "name": "OSG_Scene",
      "nodes": [
        0
      ]
    }
  ],
  "textures": [
    {
      "sampler": 0,
      "source": 0
    }
  ]
}

